<svg viewBox="0 0 1871.4561767578125 399.99371337890625" xmlns="http://www.w3.org/2000/svg"><g><g><g><g><g><line x1="31.125" y1="376" x2="26.125" y2="376" style="visibility: inherit;" fill="rgb(0, 0, 0)" stroke="rgb(204, 204, 204)" stroke-width="1px"></line><line x1="31.125" y1="329" x2="26.125" y2="329" style="visibility: inherit;" fill="rgb(0, 0, 0)" stroke="rgb(204, 204, 204)" stroke-width="1px"></line><line x1="31.125" y1="282" x2="26.125" y2="282" style="visibility: inherit;" fill="rgb(0, 0, 0)" stroke="rgb(204, 204, 204)" stroke-width="1px"></line><line x1="31.125" y1="235" x2="26.125" y2="235" style="visibility: inherit;" fill="rgb(0, 0, 0)" stroke="rgb(204, 204, 204)" stroke-width="1px"></line><line x1="31.125" y1="188" x2="26.125" y2="188" style="visibility: inherit;" fill="rgb(0, 0, 0)" stroke="rgb(204, 204, 204)" stroke-width="1px"></line><line x1="31.125" y1="141" x2="26.125" y2="141" style="visibility: inherit;" fill="rgb(0, 0, 0)" stroke="rgb(204, 204, 204)" stroke-width="1px"></line><line x1="31.125" y1="94" x2="26.125" y2="94" style="visibility: inherit;" fill="rgb(0, 0, 0)" stroke="rgb(204, 204, 204)" stroke-width="1px"></line><line x1="31.125" y1="47" x2="26.125" y2="47" style="visibility: inherit;" fill="rgb(0, 0, 0)" stroke="rgb(204, 204, 204)" stroke-width="1px"></line><line x1="31.125" y1="0" x2="26.125" y2="0" style="visibility: inherit;" fill="rgb(0, 0, 0)" stroke="rgb(204, 204, 204)" stroke-width="1px"></line></g><g transform="translate(21.125, 0)"><text x="0" y="376" dx="0em" dy="0.3em" style="text-anchor: end; visibility: hidden; font-family: &quot;Helvetica Neue&quot;, sans-serif; font-size: 12px; font-weight: 200;" fill="rgb(50, 49, 63)" stroke="none" stroke-width="1px">7</text><text x="0" y="329" dx="0em" dy="0.3em" style="text-anchor: end; visibility: inherit; font-family: &quot;Helvetica Neue&quot;, sans-serif; font-size: 12px; font-weight: 200;" fill="rgb(50, 49, 63)" stroke="none" stroke-width="1px">8</text><text x="0" y="282" dx="0em" dy="0.3em" style="text-anchor: end; visibility: inherit; font-family: &quot;Helvetica Neue&quot;, sans-serif; font-size: 12px; font-weight: 200;" fill="rgb(50, 49, 63)" stroke="none" stroke-width="1px">9</text><text x="0" y="235" dx="0em" dy="0.3em" style="text-anchor: end; visibility: inherit; font-family: &quot;Helvetica Neue&quot;, sans-serif; font-size: 12px; font-weight: 200;" fill="rgb(50, 49, 63)" stroke="none" stroke-width="1px">10</text><text x="0" y="188" dx="0em" dy="0.3em" style="text-anchor: end; visibility: inherit; font-family: &quot;Helvetica Neue&quot;, sans-serif; font-size: 12px; font-weight: 200;" fill="rgb(50, 49, 63)" stroke="none" stroke-width="1px">11</text><text x="0" y="141" dx="0em" dy="0.3em" style="text-anchor: end; visibility: inherit; font-family: &quot;Helvetica Neue&quot;, sans-serif; font-size: 12px; font-weight: 200;" fill="rgb(50, 49, 63)" stroke="none" stroke-width="1px">12</text><text x="0" y="94" dx="0em" dy="0.3em" style="text-anchor: end; visibility: inherit; font-family: &quot;Helvetica Neue&quot;, sans-serif; font-size: 12px; font-weight: 200;" fill="rgb(50, 49, 63)" stroke="none" stroke-width="1px">13</text><text x="0" y="47" dx="0em" dy="0.3em" style="text-anchor: end; visibility: inherit; font-family: &quot;Helvetica Neue&quot;, sans-serif; font-size: 12px; font-weight: 200;" fill="rgb(50, 49, 63)" stroke="none" stroke-width="1px">14</text><text x="0" y="0" dx="0em" dy="0.3em" style="text-anchor: end; visibility: hidden; font-family: &quot;Helvetica Neue&quot;, sans-serif; font-size: 12px; font-weight: 200;" fill="rgb(50, 49, 63)" stroke="none" stroke-width="1px">15</text></g><line x1="31.125" y1="0" x2="31.125" y2="376" fill="rgb(0, 0, 0)" stroke="rgb(204, 204, 204)" stroke-width="1px"></line></g></g><g transform="translate(31, 0)" clip-path="url(#clip_0)"><clipPath id="clip_0"><rect width="1460" height="375"></rect></clipPath><g><g><g><line x1="0" y1="0" x2="0" y2="376" fill="rgb(0, 0, 0)" stroke="rgb(60, 60, 60)" stroke-width="1px" opacity="0.25"></line><line x1="182.609375" y1="0" x2="182.609375" y2="376" fill="rgb(0, 0, 0)" stroke="rgb(60, 60, 60)" stroke-width="1px" opacity="0.25"></line><line x1="365.21875" y1="0" x2="365.21875" y2="376" fill="rgb(0, 0, 0)" stroke="rgb(60, 60, 60)" stroke-width="1px" opacity="0.25"></line><line x1="547.828125" y1="0" x2="547.828125" y2="376" fill="rgb(0, 0, 0)" stroke="rgb(60, 60, 60)" stroke-width="1px" opacity="0.25"></line><line x1="730.4375" y1="0" x2="730.4375" y2="376" fill="rgb(0, 0, 0)" stroke="rgb(60, 60, 60)" stroke-width="1px" opacity="0.25"></line><line x1="913.046875" y1="0" x2="913.046875" y2="376" fill="rgb(0, 0, 0)" stroke="rgb(60, 60, 60)" stroke-width="1px" opacity="0.25"></line><line x1="1095.65625" y1="0" x2="1095.65625" y2="376" fill="rgb(0, 0, 0)" stroke="rgb(60, 60, 60)" stroke-width="1px" opacity="0.25"></line><line x1="1278.265625" y1="0" x2="1278.265625" y2="376" fill="rgb(0, 0, 0)" stroke="rgb(60, 60, 60)" stroke-width="1px" opacity="0.25"></line><line x1="1460.875" y1="0" x2="1460.875" y2="376" fill="rgb(0, 0, 0)" stroke="rgb(60, 60, 60)" stroke-width="1px" opacity="0.25"></line></g><g><line x1="0" y1="376" x2="1460.875" y2="376" fill="rgb(0, 0, 0)" stroke="rgb(60, 60, 60)" stroke-width="1px" opacity="0.25"></line><line x1="0" y1="329" x2="1460.875" y2="329" fill="rgb(0, 0, 0)" stroke="rgb(60, 60, 60)" stroke-width="1px" opacity="0.25"></line><line x1="0" y1="282" x2="1460.875" y2="282" fill="rgb(0, 0, 0)" stroke="rgb(60, 60, 60)" stroke-width="1px" opacity="0.25"></line><line x1="0" y1="235" x2="1460.875" y2="235" fill="rgb(0, 0, 0)" stroke="rgb(60, 60, 60)" stroke-width="1px" opacity="0.25"></line><line x1="0" y1="188" x2="1460.875" y2="188" fill="rgb(0, 0, 0)" stroke="rgb(60, 60, 60)" stroke-width="1px" opacity="0.25"></line><line x1="0" y1="141" x2="1460.875" y2="141" fill="rgb(0, 0, 0)" stroke="rgb(60, 60, 60)" stroke-width="1px" opacity="0.25"></line><line x1="0" y1="94" x2="1460.875" y2="94" fill="rgb(0, 0, 0)" stroke="rgb(60, 60, 60)" stroke-width="1px" opacity="0.25"></line><line x1="0" y1="47" x2="1460.875" y2="47" fill="rgb(0, 0, 0)" stroke="rgb(60, 60, 60)" stroke-width="1px" opacity="0.25"></line><line x1="0" y1="0" x2="1460.875" y2="0" fill="rgb(0, 0, 0)" stroke="rgb(60, 60, 60)" stroke-width="1px" opacity="0.25"></line></g></g></g><g><g><line x1="0" y1="705" x2="1460.875" y2="705" fill="rgb(0, 0, 0)" stroke="rgb(153, 153, 153)" stroke-width="1.5px"></line></g></g><g><g><line x1="182.609375" y1="0" x2="182.609375" y2="376" fill="rgb(0, 0, 0)" stroke="rgb(153, 153, 153)" stroke-width="1.5px"></line></g></g><g><g><g><g><g><path stroke="rgb(204, 51, 17)" stroke-width="2px" d="M200.50509375000001,137.28218173980704L218.76603125,124.0381965637207L237.02696875,140.60525843561913L255.28790625,151.26872815454712L273.54884375,159.90631854410066L291.80978125,166.69775728994998L310.07071874999997,175.0095960610083L328.33165625,182.9988829050684L346.59259375,184.8028627923138L364.85353125,192.78505918221748L383.11446874999996,199.26061253433278L401.37540624999997,202.99814513072127L419.63634375,206.51639949068021L437.89728125000005,211.22406462922038L456.15821875000006,214.34160680852636L474.41915624999996,218.81594772037502L492.68009374999997,223.94204420401712L510.94103125,223.53957453310605L529.20196875,222.9844305724118L547.4629062500001,227.7757372382511L565.72384375,232.37780602413656L583.98478125,236.58150350114914L602.24571875,227.5912814348303L620.50665625,234.23779138242887L638.7675937500001,241.08072948615379L657.02853125,244.0866187835457L675.28946875,250.95223197438452L693.55040625,253.72121232974774L711.81134375,255.33080233173285L730.0722812500001,256.7093730459688L748.33321875,255.37934221805475L766.5941562500001,255.54294996360483L784.85509375,258.14607573601216L803.11603125,260.8685361751266L821.3769687500001,263.26817565562925L839.63790625,265.2646392396536L857.8988437500001,271.32669396643996L876.15978125,273.940068895061L894.42071875,274.83976956474913L912.6816562500001,275.28929913263886L930.94259375,270.78242385157887L949.2035312500001,274.9752022988048L967.46446875,276.3107416494439L985.72540625,277.022670880903L1003.9863437500001,281.48089455171026L1022.24728125,280.7255301391822L1040.50821875,286.1945904683575L1058.76915625,288.3064412470043L1077.0300937499999,288.9761010763366L1095.29103125,281.3011883709596L1113.55196875,288.32088064040767L1131.81290625,294.2941023283538L1150.07384375,299.59203718742674L1168.3347812499999,300.72812041426397L1186.59571875,293.4055490063663L1204.85665625,292.2193029145615L1223.11759375,296.1354086530347L1241.37853125,301.0783696730226L1259.6394687499999,303.206266722637" style="fill: none;" fill="none"></path></g><g><path stroke="rgb(0, 119, 187)" stroke-width="2px" d="M200.50509375000001,-35.61602210998535L218.76603125,36.92799353599543L237.02696875,49.75839217828246L255.28790625,56.21345563145246L273.54884375,60.40774122962188L291.80978125,54.094687561599585L310.07071874999997,62.72574039134611L328.33165625,46.597743687908235L346.59259375,48.93367628918969L364.85353125,61.87370959789814L383.11446874999996,-5.694759381869233L401.37540624999997,12.64716552135485L419.63634375,51.11976859225422L437.89728125000005,55.282422989362544L456.15821875000006,54.39625766726755L474.41915624999996,78.22564168227507L492.68009374999997,49.34697783434973L510.94103125,73.88601495898615L529.20196875,84.37809716707585L547.4629062500001,84.65846225506095L565.72384375,100.70212714758037L583.98478125,100.06611502418178L602.24571875,153.55116546827946L620.50665625,125.8479008523015L638.7675937500001,117.8816892072058L657.02853125,139.01670903115132L675.28946875,161.9552919686192L693.55040625,169.08658249929863L711.81134375,153.30649233032145L730.0722812500001,132.10907572481426L748.33321875,150.57198741941193L766.5941562500001,159.47626238943417L784.85509375,141.3817927176852L803.11603125,141.14113350030283L821.3769687500001,115.76486040430211L839.63790625,125.79731203697821L857.8988437500001,114.42159775359312L876.15978125,124.65235139034002L894.42071875,133.0951561227893L912.6816562500001,122.88372329869526L930.94259375,101.0386388841817L949.2035312500001,113.79455098191119L967.46446875,146.38167139445423L985.72540625,134.39264495495684L1003.9863437500001,142.9752033679093L1022.24728125,182.37408076343718L1040.50821875,166.5294735581774L1058.76915625,164.16113544405738L1077.0300937499999,170.49105191776476L1095.29103125,152.73837657287856L1113.55196875,154.3871761054783L1131.81290625,166.67080625841544L1150.07384375,167.94377136796652L1168.3347812499999,170.77226295811192L1186.59571875,163.2586172505705L1204.85665625,164.20830984619218L1223.11759375,157.30040933911027L1241.37853125,183.89159356489554L1259.6394687499999,185.36376931032416" style="fill: none;" fill="none"></path></g></g></g></g><g opacity="0.2"><g><g><g><path stroke="rgb(204, 51, 17)" stroke-width="2px" d="M200.50509375000001,137.28218173980713L218.76603125,116.09180545806885L237.02696875,156.5096378326416L255.28790625,163.80896854400635L273.54884375,171.18355655670166L291.80978125,176.0927619934082L310.07071874999997,186.895658493042L328.33165625,194.64733982086182L346.59259375,187.46338272094727L364.85353125,204.63769054412842L383.11446874999996,208.91520977020264L401.37540624999997,208.58410453796387L419.63634375,211.78229331970215L437.89728125000005,218.27633953094482L456.15821875000006,219.01425552368164L474.41915624999996,225.5243034362793L492.68009374999997,231.62901973724365L510.94103125,222.93597221374512L529.20196875,222.15179920196533L547.4629062500001,234.96225929260254L565.72384375,239.2806568145752L583.98478125,242.8869113922119L602.24571875,214.106125831604L620.50665625,244.20747756958008L638.7675937500001,251.34508800506592L657.02853125,248.59543991088867L675.28946875,261.2506341934204L693.55040625,257.87467861175537L711.81134375,257.7451858520508L730.0722812500001,258.7772283554077L748.33321875,253.38429641723633L766.5941562500001,255.78836154937744L784.85509375,262.0507640838623L803.11603125,264.95222663879395L821.3769687500001,266.8676347732544L839.63790625,268.259334564209L857.8988437500001,280.4197759628296L876.15978125,277.8601312637329L894.42071875,276.18932056427L912.6816562500001,275.9635934829712L930.94259375,264.0221109390259L949.2035312500001,281.2643699645996L967.46446875,278.3140506744385L985.72540625,278.0905647277832L1003.9863437500001,288.1682300567627L1022.24728125,279.5924835205078L1040.50821875,294.3981809616089L1058.76915625,291.47421741485596L1077.0300937499999,289.9805908203125L1095.29103125,269.7888193130493L1113.55196875,298.85041904449463L1131.81290625,303.2539348602295L1150.07384375,307.5389394760132L1168.3347812499999,302.4322452545166L1186.59571875,282.42169189453125L1204.85665625,290.43993377685547L1223.11759375,302.0095672607422L1241.37853125,308.49281120300293L1259.6394687499999,306.3981122970581" style="fill: none;" fill="none"></path></g><g><path stroke="rgb(0, 119, 187)" stroke-width="2px" d="M200.50509375000001,-35.61602210998535L218.76603125,80.45440292358398L237.02696875,62.07557487487793L255.28790625,63.80461025238037L273.54884375,65.8838005065918L291.80978125,45.3614616394043L310.07071874999997,75.068284034729L328.33165625,23.082969665527344L346.59259375,52.37872314453125L364.85353125,81.08815097808838L383.11446874999996,-106.43462181091309L401.37540624999997,40.06023693084717L419.63634375,108.70305347442627L437.89728125000005,61.51824951171875L456.15821875000006,53.0680513381958L474.41915624999996,113.95291137695312L492.68009374999997,6.041202545166016L510.94103125,110.68834018707275L529.20196875,100.11462211608887L547.4629062500001,85.07898426055908L565.72384375,124.76674461364746L583.98478125,99.11211776733398L602.24571875,233.77768516540527L620.50665625,84.29333209991455L638.7675937500001,105.93242835998535L657.02853125,170.71914863586426L675.28946875,196.3631076812744L693.55040625,179.78350734710693L711.81134375,129.63637161254883L730.0722812500001,100.31296253204346L748.33321875,178.26634883880615L766.5941562500001,172.83267307281494L784.85509375,114.24009037017822L803.11603125,140.78014469146729L821.3769687500001,77.70045185089111L839.63790625,140.84598922729492L857.8988437500001,97.3580265045166L876.15978125,139.99848175048828L894.42071875,145.75936317443848L912.6816562500001,107.56657409667969L930.94259375,68.27101230621338L949.2035312500001,132.92841911315918L967.46446875,195.2623519897461L985.72540625,116.40910530090332L1003.9863437500001,155.84904098510742L1022.24728125,241.47239685058594L1040.50821875,142.76256275177002L1058.76915625,160.60862827301025L1077.0300937499999,179.9859266281128L1095.29103125,126.1093635559082L1113.55196875,156.8603754043579L1131.81290625,185.09625148773193L1150.07384375,169.8532190322876L1168.3347812499999,175.01500034332275L1186.59571875,151.98814868927002L1204.85665625,165.63284873962402L1223.11759375,146.9385585784912L1241.37853125,223.77836990356445L1259.6394687499999,187.5720329284668" style="fill: none;" fill="none"></path></g></g></g></g></g></g><g transform="translate(31, 376)" clip-path="url(#clip_1)"><clipPath id="clip_1"><rect width="1460" height="24"></rect></clipPath><g><g><line x1="0" y1="0" x2="0" y2="5" style="visibility: inherit;" fill="rgb(0, 0, 0)" stroke="rgb(204, 204, 204)" stroke-width="1px"></line><line x1="182.609375" y1="0" x2="182.609375" y2="5" style="visibility: inherit;" fill="rgb(0, 0, 0)" stroke="rgb(204, 204, 204)" stroke-width="1px"></line><line x1="365.21875" y1="0" x2="365.21875" y2="5" style="visibility: inherit;" fill="rgb(0, 0, 0)" stroke="rgb(204, 204, 204)" stroke-width="1px"></line><line x1="547.828125" y1="0" x2="547.828125" y2="5" style="visibility: inherit;" fill="rgb(0, 0, 0)" stroke="rgb(204, 204, 204)" stroke-width="1px"></line><line x1="730.4375" y1="0" x2="730.4375" y2="5" style="visibility: inherit;" fill="rgb(0, 0, 0)" stroke="rgb(204, 204, 204)" stroke-width="1px"></line><line x1="913.046875" y1="0" x2="913.046875" y2="5" style="visibility: inherit;" fill="rgb(0, 0, 0)" stroke="rgb(204, 204, 204)" stroke-width="1px"></line><line x1="1095.65625" y1="0" x2="1095.65625" y2="5" style="visibility: inherit;" fill="rgb(0, 0, 0)" stroke="rgb(204, 204, 204)" stroke-width="1px"></line><line x1="1278.265625" y1="0" x2="1278.265625" y2="5" style="visibility: inherit;" fill="rgb(0, 0, 0)" stroke="rgb(204, 204, 204)" stroke-width="1px"></line><line x1="1460.875" y1="0" x2="1460.875" y2="5" style="visibility: inherit;" fill="rgb(0, 0, 0)" stroke="rgb(204, 204, 204)" stroke-width="1px"></line></g><g transform="translate(0, 8)"><text x="0" y="0" dx="0em" dy="0.95em" style="text-anchor: middle; visibility: hidden; font-family: &quot;Helvetica Neue&quot;, sans-serif; font-size: 12px; font-weight: 200;" fill="rgb(50, 49, 63)" stroke="none" stroke-width="1px">-500</text><text x="182.609375" y="0" dx="0em" dy="0.95em" style="text-anchor: middle; visibility: inherit; font-family: &quot;Helvetica Neue&quot;, sans-serif; font-size: 12px; font-weight: 200;" fill="rgb(50, 49, 63)" stroke="none" stroke-width="1px">0</text><text x="365.21875" y="0" dx="0em" dy="0.95em" style="text-anchor: middle; visibility: inherit; font-family: &quot;Helvetica Neue&quot;, sans-serif; font-size: 12px; font-weight: 200;" fill="rgb(50, 49, 63)" stroke="none" stroke-width="1px">500</text><text x="547.828125" y="0" dx="0em" dy="0.95em" style="text-anchor: middle; visibility: inherit; font-family: &quot;Helvetica Neue&quot;, sans-serif; font-size: 12px; font-weight: 200;" fill="rgb(50, 49, 63)" stroke="none" stroke-width="1px">1k</text><text x="730.4375" y="0" dx="0em" dy="0.95em" style="text-anchor: middle; visibility: inherit; font-family: &quot;Helvetica Neue&quot;, sans-serif; font-size: 12px; font-weight: 200;" fill="rgb(50, 49, 63)" stroke="none" stroke-width="1px">1.5k</text><text x="913.046875" y="0" dx="0em" dy="0.95em" style="text-anchor: middle; visibility: inherit; font-family: &quot;Helvetica Neue&quot;, sans-serif; font-size: 12px; font-weight: 200;" fill="rgb(50, 49, 63)" stroke="none" stroke-width="1px">2k</text><text x="1095.65625" y="0" dx="0em" dy="0.95em" style="text-anchor: middle; visibility: inherit; font-family: &quot;Helvetica Neue&quot;, sans-serif; font-size: 12px; font-weight: 200;" fill="rgb(50, 49, 63)" stroke="none" stroke-width="1px">2.5k</text><text x="1278.265625" y="0" dx="0em" dy="0.95em" style="text-anchor: middle; visibility: inherit; font-family: &quot;Helvetica Neue&quot;, sans-serif; font-size: 12px; font-weight: 200;" fill="rgb(50, 49, 63)" stroke="none" stroke-width="1px">3k</text><text x="1460.875" y="0" dx="0em" dy="0.95em" style="text-anchor: middle; visibility: hidden; font-family: &quot;Helvetica Neue&quot;, sans-serif; font-size: 12px; font-weight: 200;" fill="rgb(50, 49, 63)" stroke="none" stroke-width="1px">3.5k</text></g><line x1="0" y1="0" x2="1460.875" y2="0" fill="rgb(0, 0, 0)" stroke="rgb(204, 204, 204)" stroke-width="1px"></line></g></g></g></g></svg>