<svg viewBox="0 0 1871.4561767578125 399.99371337890625" xmlns="http://www.w3.org/2000/svg"><g><g><g><g><g><line x1="52.25" y1="376" x2="47.25" y2="376" style="visibility: inherit;" fill="rgb(0, 0, 0)" stroke="rgb(204, 204, 204)" stroke-width="1px"></line><line x1="52.25" y1="334.22222222222223" x2="47.25" y2="334.22222222222223" style="visibility: inherit;" fill="rgb(0, 0, 0)" stroke="rgb(204, 204, 204)" stroke-width="1px"></line><line x1="52.25" y1="292.44444444444446" x2="47.25" y2="292.44444444444446" style="visibility: inherit;" fill="rgb(0, 0, 0)" stroke="rgb(204, 204, 204)" stroke-width="1px"></line><line x1="52.25" y1="250.66666666666669" x2="47.25" y2="250.66666666666669" style="visibility: inherit;" fill="rgb(0, 0, 0)" stroke="rgb(204, 204, 204)" stroke-width="1px"></line><line x1="52.25" y1="208.88888888888889" x2="47.25" y2="208.88888888888889" style="visibility: inherit;" fill="rgb(0, 0, 0)" stroke="rgb(204, 204, 204)" stroke-width="1px"></line><line x1="52.25" y1="167.11111111111111" x2="47.25" y2="167.11111111111111" style="visibility: inherit;" fill="rgb(0, 0, 0)" stroke="rgb(204, 204, 204)" stroke-width="1px"></line><line x1="52.25" y1="125.33333333333334" x2="47.25" y2="125.33333333333334" style="visibility: inherit;" fill="rgb(0, 0, 0)" stroke="rgb(204, 204, 204)" stroke-width="1px"></line><line x1="52.25" y1="83.55555555555554" x2="47.25" y2="83.55555555555554" style="visibility: inherit;" fill="rgb(0, 0, 0)" stroke="rgb(204, 204, 204)" stroke-width="1px"></line><line x1="52.25" y1="41.77777777777777" x2="47.25" y2="41.77777777777777" style="visibility: inherit;" fill="rgb(0, 0, 0)" stroke="rgb(204, 204, 204)" stroke-width="1px"></line><line x1="52.25" y1="0" x2="47.25" y2="0" style="visibility: inherit;" fill="rgb(0, 0, 0)" stroke="rgb(204, 204, 204)" stroke-width="1px"></line></g><g transform="translate(42.25, 0)"><text x="0" y="376" dx="0em" dy="0.3em" style="text-anchor: end; visibility: hidden; font-family: &quot;Helvetica Neue&quot;, sans-serif; font-size: 12px; font-weight: 200;" fill="rgb(50, 49, 63)" stroke="none" stroke-width="1px">29</text><text x="0" y="334.22222222222223" dx="0em" dy="0.3em" style="text-anchor: end; visibility: inherit; font-family: &quot;Helvetica Neue&quot;, sans-serif; font-size: 12px; font-weight: 200;" fill="rgb(50, 49, 63)" stroke="none" stroke-width="1px">29.5</text><text x="0" y="292.44444444444446" dx="0em" dy="0.3em" style="text-anchor: end; visibility: inherit; font-family: &quot;Helvetica Neue&quot;, sans-serif; font-size: 12px; font-weight: 200;" fill="rgb(50, 49, 63)" stroke="none" stroke-width="1px">30</text><text x="0" y="250.66666666666669" dx="0em" dy="0.3em" style="text-anchor: end; visibility: inherit; font-family: &quot;Helvetica Neue&quot;, sans-serif; font-size: 12px; font-weight: 200;" fill="rgb(50, 49, 63)" stroke="none" stroke-width="1px">30.5</text><text x="0" y="208.88888888888889" dx="0em" dy="0.3em" style="text-anchor: end; visibility: inherit; font-family: &quot;Helvetica Neue&quot;, sans-serif; font-size: 12px; font-weight: 200;" fill="rgb(50, 49, 63)" stroke="none" stroke-width="1px">31</text><text x="0" y="167.11111111111111" dx="0em" dy="0.3em" style="text-anchor: end; visibility: inherit; font-family: &quot;Helvetica Neue&quot;, sans-serif; font-size: 12px; font-weight: 200;" fill="rgb(50, 49, 63)" stroke="none" stroke-width="1px">31.5</text><text x="0" y="125.33333333333334" dx="0em" dy="0.3em" style="text-anchor: end; visibility: inherit; font-family: &quot;Helvetica Neue&quot;, sans-serif; font-size: 12px; font-weight: 200;" fill="rgb(50, 49, 63)" stroke="none" stroke-width="1px">32</text><text x="0" y="83.55555555555554" dx="0em" dy="0.3em" style="text-anchor: end; visibility: inherit; font-family: &quot;Helvetica Neue&quot;, sans-serif; font-size: 12px; font-weight: 200;" fill="rgb(50, 49, 63)" stroke="none" stroke-width="1px">32.5</text><text x="0" y="41.77777777777777" dx="0em" dy="0.3em" style="text-anchor: end; visibility: inherit; font-family: &quot;Helvetica Neue&quot;, sans-serif; font-size: 12px; font-weight: 200;" fill="rgb(50, 49, 63)" stroke="none" stroke-width="1px">33</text><text x="0" y="0" dx="0em" dy="0.3em" style="text-anchor: end; visibility: hidden; font-family: &quot;Helvetica Neue&quot;, sans-serif; font-size: 12px; font-weight: 200;" fill="rgb(50, 49, 63)" stroke="none" stroke-width="1px">33.5</text></g><line x1="52.25" y1="0" x2="52.25" y2="376" fill="rgb(0, 0, 0)" stroke="rgb(204, 204, 204)" stroke-width="1px"></line></g></g><g transform="translate(52, 0)" clip-path="url(#clip_0)"><clipPath id="clip_0"><rect width="1439" height="375"></rect></clipPath><g><g><g><line x1="0" y1="0" x2="0" y2="376" fill="rgb(0, 0, 0)" stroke="rgb(60, 60, 60)" stroke-width="1px" opacity="0.25"></line><line x1="179.96875" y1="0" x2="179.96875" y2="376" fill="rgb(0, 0, 0)" stroke="rgb(60, 60, 60)" stroke-width="1px" opacity="0.25"></line><line x1="359.9375" y1="0" x2="359.9375" y2="376" fill="rgb(0, 0, 0)" stroke="rgb(60, 60, 60)" stroke-width="1px" opacity="0.25"></line><line x1="539.90625" y1="0" x2="539.90625" y2="376" fill="rgb(0, 0, 0)" stroke="rgb(60, 60, 60)" stroke-width="1px" opacity="0.25"></line><line x1="719.875" y1="0" x2="719.875" y2="376" fill="rgb(0, 0, 0)" stroke="rgb(60, 60, 60)" stroke-width="1px" opacity="0.25"></line><line x1="899.84375" y1="0" x2="899.84375" y2="376" fill="rgb(0, 0, 0)" stroke="rgb(60, 60, 60)" stroke-width="1px" opacity="0.25"></line><line x1="1079.8125" y1="0" x2="1079.8125" y2="376" fill="rgb(0, 0, 0)" stroke="rgb(60, 60, 60)" stroke-width="1px" opacity="0.25"></line><line x1="1259.78125" y1="0" x2="1259.78125" y2="376" fill="rgb(0, 0, 0)" stroke="rgb(60, 60, 60)" stroke-width="1px" opacity="0.25"></line><line x1="1439.75" y1="0" x2="1439.75" y2="376" fill="rgb(0, 0, 0)" stroke="rgb(60, 60, 60)" stroke-width="1px" opacity="0.25"></line></g><g><line x1="0" y1="376" x2="1439.75" y2="376" fill="rgb(0, 0, 0)" stroke="rgb(60, 60, 60)" stroke-width="1px" opacity="0.25"></line><line x1="0" y1="334.22222222222223" x2="1439.75" y2="334.22222222222223" fill="rgb(0, 0, 0)" stroke="rgb(60, 60, 60)" stroke-width="1px" opacity="0.25"></line><line x1="0" y1="292.44444444444446" x2="1439.75" y2="292.44444444444446" fill="rgb(0, 0, 0)" stroke="rgb(60, 60, 60)" stroke-width="1px" opacity="0.25"></line><line x1="0" y1="250.66666666666669" x2="1439.75" y2="250.66666666666669" fill="rgb(0, 0, 0)" stroke="rgb(60, 60, 60)" stroke-width="1px" opacity="0.25"></line><line x1="0" y1="208.88888888888889" x2="1439.75" y2="208.88888888888889" fill="rgb(0, 0, 0)" stroke="rgb(60, 60, 60)" stroke-width="1px" opacity="0.25"></line><line x1="0" y1="167.11111111111111" x2="1439.75" y2="167.11111111111111" fill="rgb(0, 0, 0)" stroke="rgb(60, 60, 60)" stroke-width="1px" opacity="0.25"></line><line x1="0" y1="125.33333333333334" x2="1439.75" y2="125.33333333333334" fill="rgb(0, 0, 0)" stroke="rgb(60, 60, 60)" stroke-width="1px" opacity="0.25"></line><line x1="0" y1="83.55555555555554" x2="1439.75" y2="83.55555555555554" fill="rgb(0, 0, 0)" stroke="rgb(60, 60, 60)" stroke-width="1px" opacity="0.25"></line><line x1="0" y1="41.77777777777777" x2="1439.75" y2="41.77777777777777" fill="rgb(0, 0, 0)" stroke="rgb(60, 60, 60)" stroke-width="1px" opacity="0.25"></line><line x1="0" y1="0" x2="1439.75" y2="0" fill="rgb(0, 0, 0)" stroke="rgb(60, 60, 60)" stroke-width="1px" opacity="0.25"></line></g></g></g><g><g><line x1="0" y1="2799.1111111111113" x2="1439.75" y2="2799.1111111111113" fill="rgb(0, 0, 0)" stroke="rgb(153, 153, 153)" stroke-width="1.5px"></line></g></g><g><g><line x1="179.96875" y1="0" x2="179.96875" y2="376" fill="rgb(0, 0, 0)" stroke="rgb(153, 153, 153)" stroke-width="1.5px"></line></g></g><g><g><g><g><g><path stroke="rgb(255, 112, 67)" stroke-width="2px" d="M197.60568750000002,365.5738830566406L215.6025625,343.1623374091257L233.59943750000002,318.05156716413785L251.59631249999998,304.1009718452402L269.5931875,309.36263650998126L287.5900625,302.90777450444966L305.5869375,274.7104650872726L323.5838125,270.82646706224875L341.5806875,279.3467967997949L359.5775625,265.12158487620326L377.5744375,245.4630030537333L395.5713125,235.21212989395394L413.5681875,224.57242308200898L431.5650625,211.67851023245942L449.56193750000006,206.3905573234187L467.5588125,198.23805526269777L485.5556875,190.39026374049683L503.5525625,209.87930161264L521.5494375000001,220.83722900555205L539.5463125,208.42688773060138L557.5431874999999,196.28699018670522L575.5400625,186.79694441943715L593.5369375,218.29810943630008L611.5338125000001,206.50647363399918L629.5306875,182.86405730721094L647.5275624999999,168.6412304895363L665.5244375,150.69421699543867L683.5213125,154.27853462276434L701.5181875000001,147.4092487764796L719.5150625,146.33654702136317L737.5119374999999,158.05930552732391L755.5088125000001,142.63918723238862L773.5056875,123.78478097034784L791.5025625,129.9999228509916L809.4994375,123.02185843004747L827.4963124999999,112.88109997947436L845.4931875000001,106.35474501673946L863.4900625,105.1228432077263L881.4869375,107.3960420842144L899.4838125,108.72999992679081L917.4806874999999,117.82332982447917L935.4775625000001,121.28924800486274L953.4744375,113.63068041962993L971.4713125,123.45039040408679L989.4681875,118.24161553531349L1007.4650624999999,110.81056719398867L1025.4619375,94.80695120989151L1043.4588125,102.93318060024967L1061.4556874999998,110.23184575174156L1079.4525625,122.10925583438714L1097.4494375,106.52279633909859L1115.4463125,82.72553489974416L1133.4431875,56.02336347452217L1151.4400624999998,54.155608796517186L1169.4369375,58.43911451836459L1187.4338125,67.09484078133448L1205.4306875,75.87421946446216L1223.4275625,54.768731982493534L1241.4244374999998,67.31987362960115" style="fill: none;" fill="none"></path></g></g></g></g><g opacity="0.2"><g><g><g><path stroke="rgb(255, 112, 67)" stroke-width="2px" d="M197.60568750000002,365.5738830566406L215.6025625,329.71541002061633L233.59943750000002,293.94522772894965L251.59631249999998,287.69507175021704L269.5931875,316.23226589626734L287.5900625,293.9783766004774L305.5869375,234.38786146375867L323.5838125,265.16356065538196L341.5806875,291.9126281738281L359.5775625,243.9988030327691L377.5744375,216.15343221028644L395.5713125,219.891604953342L413.5681875,208.64760335286456L431.5650625,192.36290147569446L449.56193750000006,198.46484375L467.5588125,186.01505194769967L485.5556875,178.62189737955728L503.5525625,239.10791015625L521.5494375000001,237.27245076497394L539.5463125,189.81251017252606L557.5431874999999,178.07780965169272L575.5400625,172.5621880425347L593.5369375,265.5492350260417L611.5338125000001,188.81915961371527L629.5306875,147.40060085720486L647.5275624999999,147.30705091688367L665.5244375,123.77374267578125L683.5213125,159.65500556098092L701.5181875000001,137.1053263346354L719.5150625,144.72749498155383L737.5119374999999,175.64343939887155L755.5088125000001,119.50901285807288L773.5056875,95.503173828125L791.5025625,139.3226352267795L809.4994375,112.5547620985243L827.4963124999999,97.66996256510413L845.4931875000001,96.56521267361109L863.4900625,103.27499050564234L881.4869375,110.80584038628473L899.4838125,110.73093668619788L917.4806874999999,131.4633246527778L935.4775625000001,126.48812527126736L953.4744375,102.14282904730902L971.4713125,138.17995537651908L989.4681875,110.42845323350696L1007.4650624999999,99.66399468315973L1025.4619375,70.80152723524304L1043.4588125,115.12252468532984L1061.4556874999998,121.17984347873264L1079.4525625,139.92537095811633L1097.4494375,83.14310709635413L1115.4463125,47.02964274088538L1133.4431875,15.970106336805543L1151.4400624999998,51.353976779513914L1169.4369375,64.86437310112848L1187.4338125,80.07843017578125L1205.4306875,89.0432874891493L1223.4275625,23.110500759548586L1241.4244374999998,86.14658610026038" style="fill: none;" fill="none"></path></g></g></g></g></g></g><g transform="translate(52, 376)" clip-path="url(#clip_1)"><clipPath id="clip_1"><rect width="1439" height="24"></rect></clipPath><g><g><line x1="0" y1="0" x2="0" y2="5" style="visibility: inherit;" fill="rgb(0, 0, 0)" stroke="rgb(204, 204, 204)" stroke-width="1px"></line><line x1="179.96875" y1="0" x2="179.96875" y2="5" style="visibility: inherit;" fill="rgb(0, 0, 0)" stroke="rgb(204, 204, 204)" stroke-width="1px"></line><line x1="359.9375" y1="0" x2="359.9375" y2="5" style="visibility: inherit;" fill="rgb(0, 0, 0)" stroke="rgb(204, 204, 204)" stroke-width="1px"></line><line x1="539.90625" y1="0" x2="539.90625" y2="5" style="visibility: inherit;" fill="rgb(0, 0, 0)" stroke="rgb(204, 204, 204)" stroke-width="1px"></line><line x1="719.875" y1="0" x2="719.875" y2="5" style="visibility: inherit;" fill="rgb(0, 0, 0)" stroke="rgb(204, 204, 204)" stroke-width="1px"></line><line x1="899.84375" y1="0" x2="899.84375" y2="5" style="visibility: inherit;" fill="rgb(0, 0, 0)" stroke="rgb(204, 204, 204)" stroke-width="1px"></line><line x1="1079.8125" y1="0" x2="1079.8125" y2="5" style="visibility: inherit;" fill="rgb(0, 0, 0)" stroke="rgb(204, 204, 204)" stroke-width="1px"></line><line x1="1259.78125" y1="0" x2="1259.78125" y2="5" style="visibility: inherit;" fill="rgb(0, 0, 0)" stroke="rgb(204, 204, 204)" stroke-width="1px"></line><line x1="1439.75" y1="0" x2="1439.75" y2="5" style="visibility: inherit;" fill="rgb(0, 0, 0)" stroke="rgb(204, 204, 204)" stroke-width="1px"></line></g><g transform="translate(0, 8)"><text x="0" y="0" dx="0em" dy="0.95em" style="text-anchor: middle; visibility: hidden; font-family: &quot;Helvetica Neue&quot;, sans-serif; font-size: 12px; font-weight: 200;" fill="rgb(50, 49, 63)" stroke="none" stroke-width="1px">-500</text><text x="179.96875" y="0" dx="0em" dy="0.95em" style="text-anchor: middle; visibility: inherit; font-family: &quot;Helvetica Neue&quot;, sans-serif; font-size: 12px; font-weight: 200;" fill="rgb(50, 49, 63)" stroke="none" stroke-width="1px">0</text><text x="359.9375" y="0" dx="0em" dy="0.95em" style="text-anchor: middle; visibility: inherit; font-family: &quot;Helvetica Neue&quot;, sans-serif; font-size: 12px; font-weight: 200;" fill="rgb(50, 49, 63)" stroke="none" stroke-width="1px">500</text><text x="539.90625" y="0" dx="0em" dy="0.95em" style="text-anchor: middle; visibility: inherit; font-family: &quot;Helvetica Neue&quot;, sans-serif; font-size: 12px; font-weight: 200;" fill="rgb(50, 49, 63)" stroke="none" stroke-width="1px">1k</text><text x="719.875" y="0" dx="0em" dy="0.95em" style="text-anchor: middle; visibility: inherit; font-family: &quot;Helvetica Neue&quot;, sans-serif; font-size: 12px; font-weight: 200;" fill="rgb(50, 49, 63)" stroke="none" stroke-width="1px">1.5k</text><text x="899.84375" y="0" dx="0em" dy="0.95em" style="text-anchor: middle; visibility: inherit; font-family: &quot;Helvetica Neue&quot;, sans-serif; font-size: 12px; font-weight: 200;" fill="rgb(50, 49, 63)" stroke="none" stroke-width="1px">2k</text><text x="1079.8125" y="0" dx="0em" dy="0.95em" style="text-anchor: middle; visibility: inherit; font-family: &quot;Helvetica Neue&quot;, sans-serif; font-size: 12px; font-weight: 200;" fill="rgb(50, 49, 63)" stroke="none" stroke-width="1px">2.5k</text><text x="1259.78125" y="0" dx="0em" dy="0.95em" style="text-anchor: middle; visibility: inherit; font-family: &quot;Helvetica Neue&quot;, sans-serif; font-size: 12px; font-weight: 200;" fill="rgb(50, 49, 63)" stroke="none" stroke-width="1px">3k</text><text x="1439.75" y="0" dx="0em" dy="0.95em" style="text-anchor: middle; visibility: hidden; font-family: &quot;Helvetica Neue&quot;, sans-serif; font-size: 12px; font-weight: 200;" fill="rgb(50, 49, 63)" stroke="none" stroke-width="1px">3.5k</text></g><line x1="0" y1="0" x2="1439.75" y2="0" fill="rgb(0, 0, 0)" stroke="rgb(204, 204, 204)" stroke-width="1px"></line></g></g></g></g></svg>