<svg viewBox="0 0 1323.0113525390625 400" xmlns="http://www.w3.org/2000/svg"><g><g><g><g><g><line x1="31.125" y1="376" x2="26.125" y2="376" style="visibility: inherit;" fill="rgb(0, 0, 0)" stroke="rgb(204, 204, 204)" stroke-width="1px"></line><line x1="31.125" y1="334.22222222222223" x2="26.125" y2="334.22222222222223" style="visibility: inherit;" fill="rgb(0, 0, 0)" stroke="rgb(204, 204, 204)" stroke-width="1px"></line><line x1="31.125" y1="292.44444444444446" x2="26.125" y2="292.44444444444446" style="visibility: inherit;" fill="rgb(0, 0, 0)" stroke="rgb(204, 204, 204)" stroke-width="1px"></line><line x1="31.125" y1="250.66666666666669" x2="26.125" y2="250.66666666666669" style="visibility: inherit;" fill="rgb(0, 0, 0)" stroke="rgb(204, 204, 204)" stroke-width="1px"></line><line x1="31.125" y1="208.88888888888889" x2="26.125" y2="208.88888888888889" style="visibility: inherit;" fill="rgb(0, 0, 0)" stroke="rgb(204, 204, 204)" stroke-width="1px"></line><line x1="31.125" y1="167.11111111111111" x2="26.125" y2="167.11111111111111" style="visibility: inherit;" fill="rgb(0, 0, 0)" stroke="rgb(204, 204, 204)" stroke-width="1px"></line><line x1="31.125" y1="125.33333333333334" x2="26.125" y2="125.33333333333334" style="visibility: inherit;" fill="rgb(0, 0, 0)" stroke="rgb(204, 204, 204)" stroke-width="1px"></line><line x1="31.125" y1="83.55555555555554" x2="26.125" y2="83.55555555555554" style="visibility: inherit;" fill="rgb(0, 0, 0)" stroke="rgb(204, 204, 204)" stroke-width="1px"></line><line x1="31.125" y1="41.77777777777777" x2="26.125" y2="41.77777777777777" style="visibility: inherit;" fill="rgb(0, 0, 0)" stroke="rgb(204, 204, 204)" stroke-width="1px"></line><line x1="31.125" y1="0" x2="26.125" y2="0" style="visibility: inherit;" fill="rgb(0, 0, 0)" stroke="rgb(204, 204, 204)" stroke-width="1px"></line></g><g transform="translate(21.125, 0)"><text x="0" y="376" dx="0em" dy="0.3em" style="text-anchor: end; visibility: hidden; font-family: &quot;Helvetica Neue&quot;, sans-serif; font-size: 12px; font-weight: 200;" fill="rgb(50, 49, 63)" stroke="none" stroke-width="1px">-5</text><text x="0" y="334.22222222222223" dx="0em" dy="0.3em" style="text-anchor: end; visibility: inherit; font-family: &quot;Helvetica Neue&quot;, sans-serif; font-size: 12px; font-weight: 200;" fill="rgb(50, 49, 63)" stroke="none" stroke-width="1px">0</text><text x="0" y="292.44444444444446" dx="0em" dy="0.3em" style="text-anchor: end; visibility: inherit; font-family: &quot;Helvetica Neue&quot;, sans-serif; font-size: 12px; font-weight: 200;" fill="rgb(50, 49, 63)" stroke="none" stroke-width="1px">5</text><text x="0" y="250.66666666666669" dx="0em" dy="0.3em" style="text-anchor: end; visibility: inherit; font-family: &quot;Helvetica Neue&quot;, sans-serif; font-size: 12px; font-weight: 200;" fill="rgb(50, 49, 63)" stroke="none" stroke-width="1px">10</text><text x="0" y="208.88888888888889" dx="0em" dy="0.3em" style="text-anchor: end; visibility: inherit; font-family: &quot;Helvetica Neue&quot;, sans-serif; font-size: 12px; font-weight: 200;" fill="rgb(50, 49, 63)" stroke="none" stroke-width="1px">15</text><text x="0" y="167.11111111111111" dx="0em" dy="0.3em" style="text-anchor: end; visibility: inherit; font-family: &quot;Helvetica Neue&quot;, sans-serif; font-size: 12px; font-weight: 200;" fill="rgb(50, 49, 63)" stroke="none" stroke-width="1px">20</text><text x="0" y="125.33333333333334" dx="0em" dy="0.3em" style="text-anchor: end; visibility: inherit; font-family: &quot;Helvetica Neue&quot;, sans-serif; font-size: 12px; font-weight: 200;" fill="rgb(50, 49, 63)" stroke="none" stroke-width="1px">25</text><text x="0" y="83.55555555555554" dx="0em" dy="0.3em" style="text-anchor: end; visibility: inherit; font-family: &quot;Helvetica Neue&quot;, sans-serif; font-size: 12px; font-weight: 200;" fill="rgb(50, 49, 63)" stroke="none" stroke-width="1px">30</text><text x="0" y="41.77777777777777" dx="0em" dy="0.3em" style="text-anchor: end; visibility: inherit; font-family: &quot;Helvetica Neue&quot;, sans-serif; font-size: 12px; font-weight: 200;" fill="rgb(50, 49, 63)" stroke="none" stroke-width="1px">35</text><text x="0" y="0" dx="0em" dy="0.3em" style="text-anchor: end; visibility: hidden; font-family: &quot;Helvetica Neue&quot;, sans-serif; font-size: 12px; font-weight: 200;" fill="rgb(50, 49, 63)" stroke="none" stroke-width="1px">40</text></g><line x1="31.125" y1="0" x2="31.125" y2="376" fill="rgb(0, 0, 0)" stroke="rgb(204, 204, 204)" stroke-width="1px"></line></g></g><g transform="translate(31, 0)" clip-path="url(#clip_0)"><clipPath id="clip_0"><rect width="1291" height="375"></rect></clipPath><g><g><g><line x1="0" y1="0" x2="0" y2="376" fill="rgb(0, 0, 0)" stroke="rgb(60, 60, 60)" stroke-width="1px" opacity="0.25"></line><line x1="161.485625" y1="0" x2="161.485625" y2="376" fill="rgb(0, 0, 0)" stroke="rgb(60, 60, 60)" stroke-width="1px" opacity="0.25"></line><line x1="322.97125" y1="0" x2="322.97125" y2="376" fill="rgb(0, 0, 0)" stroke="rgb(60, 60, 60)" stroke-width="1px" opacity="0.25"></line><line x1="484.45687499999997" y1="0" x2="484.45687499999997" y2="376" fill="rgb(0, 0, 0)" stroke="rgb(60, 60, 60)" stroke-width="1px" opacity="0.25"></line><line x1="645.9425" y1="0" x2="645.9425" y2="376" fill="rgb(0, 0, 0)" stroke="rgb(60, 60, 60)" stroke-width="1px" opacity="0.25"></line><line x1="807.428125" y1="0" x2="807.428125" y2="376" fill="rgb(0, 0, 0)" stroke="rgb(60, 60, 60)" stroke-width="1px" opacity="0.25"></line><line x1="968.9137499999999" y1="0" x2="968.9137499999999" y2="376" fill="rgb(0, 0, 0)" stroke="rgb(60, 60, 60)" stroke-width="1px" opacity="0.25"></line><line x1="1130.399375" y1="0" x2="1130.399375" y2="376" fill="rgb(0, 0, 0)" stroke="rgb(60, 60, 60)" stroke-width="1px" opacity="0.25"></line><line x1="1291.885" y1="0" x2="1291.885" y2="376" fill="rgb(0, 0, 0)" stroke="rgb(60, 60, 60)" stroke-width="1px" opacity="0.25"></line></g><g><line x1="0" y1="376" x2="1291.885" y2="376" fill="rgb(0, 0, 0)" stroke="rgb(60, 60, 60)" stroke-width="1px" opacity="0.25"></line><line x1="0" y1="334.22222222222223" x2="1291.885" y2="334.22222222222223" fill="rgb(0, 0, 0)" stroke="rgb(60, 60, 60)" stroke-width="1px" opacity="0.25"></line><line x1="0" y1="292.44444444444446" x2="1291.885" y2="292.44444444444446" fill="rgb(0, 0, 0)" stroke="rgb(60, 60, 60)" stroke-width="1px" opacity="0.25"></line><line x1="0" y1="250.66666666666669" x2="1291.885" y2="250.66666666666669" fill="rgb(0, 0, 0)" stroke="rgb(60, 60, 60)" stroke-width="1px" opacity="0.25"></line><line x1="0" y1="208.88888888888889" x2="1291.885" y2="208.88888888888889" fill="rgb(0, 0, 0)" stroke="rgb(60, 60, 60)" stroke-width="1px" opacity="0.25"></line><line x1="0" y1="167.11111111111111" x2="1291.885" y2="167.11111111111111" fill="rgb(0, 0, 0)" stroke="rgb(60, 60, 60)" stroke-width="1px" opacity="0.25"></line><line x1="0" y1="125.33333333333334" x2="1291.885" y2="125.33333333333334" fill="rgb(0, 0, 0)" stroke="rgb(60, 60, 60)" stroke-width="1px" opacity="0.25"></line><line x1="0" y1="83.55555555555554" x2="1291.885" y2="83.55555555555554" fill="rgb(0, 0, 0)" stroke="rgb(60, 60, 60)" stroke-width="1px" opacity="0.25"></line><line x1="0" y1="41.77777777777777" x2="1291.885" y2="41.77777777777777" fill="rgb(0, 0, 0)" stroke="rgb(60, 60, 60)" stroke-width="1px" opacity="0.25"></line><line x1="0" y1="0" x2="1291.885" y2="0" fill="rgb(0, 0, 0)" stroke="rgb(60, 60, 60)" stroke-width="1px" opacity="0.25"></line></g></g></g><g><g><line x1="0" y1="334.22222222222223" x2="1291.885" y2="334.22222222222223" fill="rgb(0, 0, 0)" stroke="rgb(153, 153, 153)" stroke-width="1.5px"></line></g></g><g><g><line x1="161.485625" y1="0" x2="161.485625" y2="376" fill="rgb(0, 0, 0)" stroke="rgb(153, 153, 153)" stroke-width="1.5px"></line></g></g><g><g><g><g><g><path stroke="rgb(204, 51, 17)" stroke-width="2px" d="M177.31121625,232.3887215508355L193.45977875,234.06283418867324L209.60834125,234.67784269856222L225.75690375,235.72182312261046L241.90546625,236.63793271473833L258.05402875,237.81008005259443L274.20259125,237.4311518661306L290.35115375,238.21356358919607L306.49971625,238.42872472202265L322.64827875,239.59754538172152L338.79684125,240.2251614335799L354.94540374999997,241.5962865248987L371.09396625,241.60556289336745L387.24252875,241.32092698001574L403.39109125000004,242.49542619605538L419.53965374999996,244.14987652255172L435.68821625,245.318234503788L451.83677875,245.58651150044778L467.98534125000003,246.52965554734251L484.13390375000006,247.39806026746007L500.28246624999997,247.9529495564708L516.43102875,248.72858115815555L532.57959125,249.64794690321065L548.72815375,249.75600538897476L564.8767162500001,247.92381408886533L581.02527875,249.5845780158797L597.17384125,250.47397953134515L613.32240375,251.19643785864514L629.4709662500001,252.3105898374007L645.6195287500001,253.41437016479514L661.76809125,254.05754572748492L677.91665375,254.00738075823637L694.06521625,254.72004602912057L710.21377875,254.92635413434252L726.36234125,254.8210771001065L742.51090375,255.43251273501198L758.65946625,254.7635292433124L774.80802875,255.8348223975131L790.95659125,256.3526270415495L807.10515375,256.4897946089021L823.25371625,255.59428949791297L839.40227875,256.6050036715649L855.55084125,257.2508888947487L871.69940375,257.5633346471247L887.84796625,257.36418107254235L903.9965287499999,258.0327810366877L920.1450912500001,258.380864572004L936.29365375,258.6918323418422L952.4422162499999,259.0221771096453L968.59077875,258.64242383305844L984.7393412499999,258.98695725665095L1000.8879037500001,259.09402989055775L1017.03646625,258.92481298099233L1033.18502875,258.5500787608172L1049.33359125,258.9815795101798L1065.48215375,259.60181222162464L1081.63071625,258.367286605978L1097.77927875,258.99512239761464L1113.92784125,259.242670769298" style="fill: none;" fill="none"></path></g><g><path stroke="rgb(0, 119, 187)" stroke-width="2px" d="M177.31121625,89.92337409125435L193.45977875,64.41188104417586L209.60834125,60.33443182082408L225.75690375,57.78754551831412L241.90546625,60.80468305754988L258.05402875,65.81912032620323L274.20259125,86.58245358119916L290.35115375,81.8919265567668L306.49971625,75.6847454040738L322.64827875,69.81303558708174L338.79684125,62.48367912197136L354.94540374999997,53.874178323732394L371.09396625,63.86973106928565L387.24252875,80.46211000083304L403.39109125000004,79.88989001766214L419.53965374999996,86.38900668639872L435.68821625,90.3301998676767L451.83677875,90.49156078758068L467.98534125000003,92.62371046726133L484.13390375000006,84.17223922128164L500.28246624999997,79.19419461610858L516.43102875,84.02963529194636L532.57959125,102.44859937834957L548.72815375,101.04688478311152L564.8767162500001,96.14271504457554L581.02527875,88.3672231579252L597.17384125,99.97839333184436L613.32240375,116.48613576315199L629.4709662500001,126.8152079416567L645.6195287500001,130.1535643864811L661.76809125,131.63918757569297L677.91665375,123.74783090065938L694.06521625,121.0505892807376L710.21377875,106.99578827860319L726.36234125,115.51835201992083L742.51090375,122.37527858953538L758.65946625,114.1762287077978L774.80802875,116.81124816653767L790.95659125,115.2411344758516L807.10515375,118.7277236317949L823.25371625,105.04805601597849L839.40227875,109.75893804978807L855.55084125,106.88355537461553L871.69940375,112.2254930618493L887.84796625,114.45885188117853L903.9965287499999,117.94593233118155L920.1450912500001,122.48010497179527L936.29365375,127.64682953050217L952.4422162499999,126.33854246112224L968.59077875,115.05721591712035L984.7393412499999,125.55017848152974L1000.8879037500001,98.88586094083678L1017.03646625,104.09081859359094L1033.18502875,103.95651494630204L1049.33359125,107.35262465246223L1065.48215375,119.10452265389495L1081.63071625,118.87776296299666L1097.77927875,125.21975524416166L1113.92784125,114.93728581793715" style="fill: none;" fill="none"></path></g></g></g></g><g opacity="0.2"><g><g><g><path stroke="rgb(204, 51, 17)" stroke-width="2px" d="M177.31121625,232.3887215508355L193.45977875,235.06730177137587L209.60834125,235.26825086805556L225.75690375,236.94954410129122L241.90546625,237.83400539822048L258.05402875,239.43158179389107L274.20259125,236.88927849663628L290.35115375,239.35432739257814L306.49971625,238.7460456000434L322.64827875,241.33310784233942L338.79684125,241.1608930799696L354.94540374999997,243.64551255967882L371.09396625,241.61944715711806L387.24252875,240.8945307413737L403.39109125000004,244.25579444037544L419.53965374999996,246.63038516574434L435.68821625,247.07027706570096L451.83677875,245.98885887993706L467.98534125000003,247.94422793918184L484.13390375000006,248.70058797200522L500.28246624999997,248.7852530585395L516.43102875,249.89200303819445L532.57959125,251.0269773695204L548.72815375,249.9180918375651L564.8767162500001,245.17554016113283L581.02527875,252.07571682400174L597.17384125,251.8080795288086L613.32240375,252.2801242404514L629.4709662500001,253.98181677924262L645.6195287500001,255.07004004584417L661.76809125,255.02230885823568L677.91665375,253.93213331434464L694.06521625,255.7890438503689L710.21377875,255.235816277398L726.36234125,254.6631615532769L742.51090375,256.34966617160376L758.65946625,253.7600540161133L774.80802875,257.44176211886935L790.95659125,257.12933400472L807.10515375,256.69554595947267L823.25371625,254.25103183322483L839.40227875,258.1210749308268L855.55084125,258.2197167290582L871.69940375,258.0320032755534L887.84796625,257.0654507107205L903.9965287499999,259.03568098280164L920.1450912500001,258.9029898749458L936.29365375,259.15828399658204L952.4422162499999,259.517694261339L968.59077875,258.07279391818577L984.7393412499999,259.5037573920356L1000.8879037500001,259.2546388414171L1017.03646625,258.670987616645L1033.18502875,257.9879774305556L1049.33359125,259.6288306342231L1065.48215375,260.53216128879126L1081.63071625,256.5154981825087L1097.77927875,259.93687608506946L1113.92784125,259.61399332682294" style="fill: none;" fill="none"></path></g><g><path stroke="rgb(0, 119, 187)" stroke-width="2px" d="M177.31121625,89.92337409125435L193.45977875,49.10498521592882L209.60834125,56.420080566406284L225.75690375,54.79240722656249L241.90546625,64.74385782877607L258.05402875,72.75589226616756L274.20259125,116.27435234917533L290.35115375,75.05309312608506L306.49971625,66.53035888671872L322.64827875,61.09423082139756L338.79684125,51.556121148003456L354.94540374999997,41.00677964952257L371.09396625,78.83042297363278L387.24252875,105.31817220052079L403.39109125000004,79.03223266601566L419.53965374999996,96.13309800889755L435.68821625,96.24032185872392L451.83677875,90.73356119791663L467.98534125000003,95.82161017523873L484.13390375000006,71.49580485026041L500.28246624999997,71.72740071614584L516.43102875,91.28263719346785L532.57959125,130.07668185763887L548.72815375,98.94432949490016L564.8767162500001,88.78649529351128L581.02527875,76.70401848687067L597.17384125,117.395118882921L613.32240375,141.24772406684025L629.4709662500001,142.30880669487846L645.6195287500001,135.16109720865884L661.76809125,133.86762186686198L677.91665375,111.9107974582248L694.06521625,117.00472717285157L710.21377875,85.91358778211804L726.36234125,128.302197265625L742.51090375,132.66066826714408L758.65946625,101.87765401204427L774.80802875,120.7637773301866L790.95659125,112.88596394856768L807.10515375,123.95760735405815L823.25371625,84.52855461968318L839.40227875,116.82526109483507L855.55084125,102.57048136393229L871.69940375,120.23839959038628L887.84796625,117.80889010959203L903.9965287499999,123.17655300564238L920.1450912500001,129.28136393229167L936.29365375,135.39691636827257L952.4422162499999,124.37611185709636L968.59077875,98.1352261013455L984.7393412499999,141.2896223280165L1000.8879037500001,58.8893846299913L1017.03646625,111.89825507269967L1033.18502875,103.75505947536891L1049.33359125,112.44678921169702L1065.48215375,136.732369656033L1081.63071625,118.5376234266493L1097.77927875,134.73274366590715L1113.92784125,99.51358167860246" style="fill: none;" fill="none"></path></g></g></g></g></g></g><g transform="translate(31, 376)" clip-path="url(#clip_1)"><clipPath id="clip_1"><rect width="1291" height="23"></rect></clipPath><g><g><line x1="0" y1="0" x2="0" y2="5" style="visibility: inherit;" fill="rgb(0, 0, 0)" stroke="rgb(204, 204, 204)" stroke-width="1px"></line><line x1="161.485625" y1="0" x2="161.485625" y2="5" style="visibility: inherit;" fill="rgb(0, 0, 0)" stroke="rgb(204, 204, 204)" stroke-width="1px"></line><line x1="322.97125" y1="0" x2="322.97125" y2="5" style="visibility: inherit;" fill="rgb(0, 0, 0)" stroke="rgb(204, 204, 204)" stroke-width="1px"></line><line x1="484.45687499999997" y1="0" x2="484.45687499999997" y2="5" style="visibility: inherit;" fill="rgb(0, 0, 0)" stroke="rgb(204, 204, 204)" stroke-width="1px"></line><line x1="645.9425" y1="0" x2="645.9425" y2="5" style="visibility: inherit;" fill="rgb(0, 0, 0)" stroke="rgb(204, 204, 204)" stroke-width="1px"></line><line x1="807.428125" y1="0" x2="807.428125" y2="5" style="visibility: inherit;" fill="rgb(0, 0, 0)" stroke="rgb(204, 204, 204)" stroke-width="1px"></line><line x1="968.9137499999999" y1="0" x2="968.9137499999999" y2="5" style="visibility: inherit;" fill="rgb(0, 0, 0)" stroke="rgb(204, 204, 204)" stroke-width="1px"></line><line x1="1130.399375" y1="0" x2="1130.399375" y2="5" style="visibility: inherit;" fill="rgb(0, 0, 0)" stroke="rgb(204, 204, 204)" stroke-width="1px"></line><line x1="1291.885" y1="0" x2="1291.885" y2="5" style="visibility: inherit;" fill="rgb(0, 0, 0)" stroke="rgb(204, 204, 204)" stroke-width="1px"></line></g><g transform="translate(0, 8)"><text x="0" y="0" dx="0em" dy="0.95em" style="text-anchor: middle; visibility: hidden; font-family: &quot;Helvetica Neue&quot;, sans-serif; font-size: 12px; font-weight: 200;" fill="rgb(50, 49, 63)" stroke="none" stroke-width="1px">-500</text><text x="161.485625" y="0" dx="0em" dy="0.95em" style="text-anchor: middle; visibility: inherit; font-family: &quot;Helvetica Neue&quot;, sans-serif; font-size: 12px; font-weight: 200;" fill="rgb(50, 49, 63)" stroke="none" stroke-width="1px">0</text><text x="322.97125" y="0" dx="0em" dy="0.95em" style="text-anchor: middle; visibility: inherit; font-family: &quot;Helvetica Neue&quot;, sans-serif; font-size: 12px; font-weight: 200;" fill="rgb(50, 49, 63)" stroke="none" stroke-width="1px">500</text><text x="484.45687499999997" y="0" dx="0em" dy="0.95em" style="text-anchor: middle; visibility: inherit; font-family: &quot;Helvetica Neue&quot;, sans-serif; font-size: 12px; font-weight: 200;" fill="rgb(50, 49, 63)" stroke="none" stroke-width="1px">1k</text><text x="645.9425" y="0" dx="0em" dy="0.95em" style="text-anchor: middle; visibility: inherit; font-family: &quot;Helvetica Neue&quot;, sans-serif; font-size: 12px; font-weight: 200;" fill="rgb(50, 49, 63)" stroke="none" stroke-width="1px">1.5k</text><text x="807.428125" y="0" dx="0em" dy="0.95em" style="text-anchor: middle; visibility: inherit; font-family: &quot;Helvetica Neue&quot;, sans-serif; font-size: 12px; font-weight: 200;" fill="rgb(50, 49, 63)" stroke="none" stroke-width="1px">2k</text><text x="968.9137499999999" y="0" dx="0em" dy="0.95em" style="text-anchor: middle; visibility: inherit; font-family: &quot;Helvetica Neue&quot;, sans-serif; font-size: 12px; font-weight: 200;" fill="rgb(50, 49, 63)" stroke="none" stroke-width="1px">2.5k</text><text x="1130.399375" y="0" dx="0em" dy="0.95em" style="text-anchor: middle; visibility: inherit; font-family: &quot;Helvetica Neue&quot;, sans-serif; font-size: 12px; font-weight: 200;" fill="rgb(50, 49, 63)" stroke="none" stroke-width="1px">3k</text><text x="1291.885" y="0" dx="0em" dy="0.95em" style="text-anchor: middle; visibility: hidden; font-family: &quot;Helvetica Neue&quot;, sans-serif; font-size: 12px; font-weight: 200;" fill="rgb(50, 49, 63)" stroke="none" stroke-width="1px">3.5k</text></g><line x1="0" y1="0" x2="1291.885" y2="0" fill="rgb(0, 0, 0)" stroke="rgb(204, 204, 204)" stroke-width="1px"></line></g></g></g></g></svg>